<!DOCTYPE svg PUBLIC "-//W3C//DTD SVG 1.1//EN" "http://www.w3.org/Graphics/SVG/1.1/DTD/svg11.dtd">
<!-- Uploaded to: SVG Repo, www.svgrepo.com, Transformed by: SVG Repo Mixer Tools -->
<svg version="1.1" id="Layer_1" xmlns="http://www.w3.org/2000/svg" xmlns:xlink="http://www.w3.org/1999/xlink" viewBox="0 0 512 512" xml:space="preserve" width="800px" height="800px" fill="#0000" stroke="#0000">
<g id="SVGRepo_bgCarrier" stroke-width="0"/>
<g id="SVGRepo_tracerCarrier" stroke-linecap="round" stroke-linejoin="round"/>
<g id="SVGRepo_iconCarrier"> <path style="fill:#00AAF0;" d="M478.33,50.772H119.182c-14.168,0-25.653,11.485-25.653,25.653v222.33 c0,14.168,11.485,25.653,25.653,25.653H478.33c14.168,0,25.653-11.485,25.653-25.653V76.426 C503.983,62.258,492.498,50.772,478.33,50.772z"/> <path style="fill:#0096DC;" d="M392.818,161.937H93.528v136.818c0,14.168,11.485,25.653,25.653,25.653h324.944V213.244 C444.125,184.908,421.155,161.937,392.818,161.937z"/> <rect x="93.528" y="84.977" style="fill:#1b3555;" width="410.455" height="51.307"/> <path style="fill:#3555a2;" d="M392.818,187.591H33.67c-14.168,0-25.653,11.485-25.653,25.653v222.33 c0,14.168,11.485,25.653,25.653,25.653h359.148c14.168,0,25.653-11.485,25.653-25.653v-222.33 C418.472,199.076,406.987,187.591,392.818,187.591z"/> <path style="fill:#C7CFE2;" d="M110.63,350.063H59.324c-4.727,0-8.551-3.829-8.551-8.551c0-4.722,3.825-8.551,8.551-8.551h51.307 c4.727,0,8.551,3.829,8.551,8.551C119.182,346.234,115.357,350.063,110.63,350.063z"/> <g> <path style="fill:#AFB9D2;" d="M230.347,384.267h-17.102c-4.727,0-8.551-3.829-8.551-8.551c0-4.722,3.825-8.551,8.551-8.551h17.102 c4.727,0,8.551,3.829,8.551,8.551C238.898,380.438,235.073,384.267,230.347,384.267z"/> <path style="fill:#AFB9D2;" d="M281.653,384.267h-17.102c-4.727,0-8.551-3.829-8.551-8.551c0-4.722,3.825-8.551,8.551-8.551h17.102 c4.727,0,8.551,3.829,8.551,8.551C290.205,380.438,286.38,384.267,281.653,384.267z"/> </g> <g> <path style="fill:#C7CFE2;" d="M196.142,350.063h-51.307c-4.727,0-8.551-3.829-8.551-8.551c0-4.722,3.825-8.551,8.551-8.551h51.307 c4.727,0,8.551,3.829,8.551,8.551C204.693,346.234,200.869,350.063,196.142,350.063z"/> <path style="fill:#C7CFE2;" d="M281.653,350.063h-51.307c-4.727,0-8.551-3.829-8.551-8.551c0-4.722,3.825-8.551,8.551-8.551h51.307 c4.727,0,8.551,3.829,8.551,8.551C290.205,346.234,286.38,350.063,281.653,350.063z"/> <path style="fill:#C7CFE2;" d="M119.182,418.472H59.324c-4.727,0-8.551-3.829-8.551-8.551c0-4.722,3.825-8.551,8.551-8.551h59.858 c4.727,0,8.551,3.829,8.551,8.551C127.733,414.643,123.908,418.472,119.182,418.472z"/> <path style="fill:#C7CFE2;" d="M196.142,418.472h-42.756c-4.727,0-8.551-3.829-8.551-8.551c0-4.722,3.824-8.551,8.551-8.551h42.756 c4.727,0,8.551,3.829,8.551,8.551C204.693,414.643,200.869,418.472,196.142,418.472z"/> <path style="fill:#C7CFE2;" d="M367.165,350.063h-51.307c-4.727,0-8.551-3.829-8.551-8.551c0-4.722,3.825-8.551,8.551-8.551h51.307 c4.727,0,8.551,3.829,8.551,8.551C375.716,346.234,371.892,350.063,367.165,350.063z"/> </g> <g> <path style="fill:#0096DC;" d="M110.63,307.307H76.426c-9.446,0-17.102-7.656-17.102-17.102v-17.102 c0-9.446,7.656-17.102,17.102-17.102h34.205c9.446,0,17.102,7.656,17.102,17.102v17.102 C127.733,299.65,120.076,307.307,110.63,307.307z"/> <circle style="fill:#0096DC;" cx="341.511" cy="264.551" r="34.205"/> </g> <circle style="fill:#00AAF0;" cx="298.756" cy="264.551" r="34.205"/> <path style="fill:#0096DC;" d="M307.307,264.551c0,10.755,5.064,20.233,12.827,26.503c7.762-6.27,12.827-15.748,12.827-26.503 c0-10.756-5.064-20.233-12.827-26.503C312.371,244.318,307.307,253.796,307.307,264.551z"/> <path d="M478.33,42.756H119.182c-18.566,0-33.67,15.105-33.67,33.67v103.148H33.67c-18.566,0-33.67,15.105-33.67,33.67v222.33 c0,18.566,15.105,33.67,33.67,33.67h359.148c18.566,0,33.67-15.105,33.67-33.67V332.426h51.841c18.566,0,33.67-15.105,33.67-33.67 V76.426C512,57.86,496.895,42.756,478.33,42.756z M101.545,92.994h394.422v35.273H101.545V92.994z M119.182,58.789H478.33 c9.725,0,17.637,7.912,17.637,17.637v0.534H101.545v-0.534C101.545,66.701,109.457,58.789,119.182,58.789z M392.818,453.211H33.67 c-9.725,0-17.637-7.912-17.637-17.637v-222.33c0-9.725,7.912-17.637,17.637-17.637h359.148c9.725,0,17.637,7.912,17.637,17.637 v222.33C410.455,445.299,402.543,453.211,392.818,453.211z M478.33,316.392h-51.841V213.244c0-18.566-15.105-33.67-33.67-33.67 H101.545v-35.273h394.422v154.455C495.967,308.481,488.055,316.392,478.33,316.392z"/> <path d="M59.324,349.528h51.307c4.427,0,8.017-3.589,8.017-8.017c0-4.427-3.589-8.017-8.017-8.017H59.324 c-4.427,0-8.017,3.589-8.017,8.017C51.307,345.939,54.896,349.528,59.324,349.528z"/> <path d="M230.347,367.699h-17.102c-4.427,0-8.017,3.589-8.017,8.017c0,4.427,3.589,8.017,8.017,8.017h17.102 c4.427,0,8.017-3.589,8.017-8.017C238.363,371.289,234.774,367.699,230.347,367.699z"/> <path d="M281.653,367.699h-17.102c-4.427,0-8.017,3.589-8.017,8.017c0,4.427,3.589,8.017,8.017,8.017h17.102 c4.427,0,8.017-3.589,8.017-8.017C289.67,371.289,286.081,367.699,281.653,367.699z"/> <path d="M196.142,333.495h-51.307c-4.427,0-8.017,3.589-8.017,8.017c0,4.427,3.589,8.017,8.017,8.017h51.307 c4.427,0,8.017-3.589,8.017-8.017C204.159,337.084,200.569,333.495,196.142,333.495z"/> <path d="M281.653,333.495h-51.307c-4.427,0-8.017,3.589-8.017,8.017c0,4.427,3.589,8.017,8.017,8.017h51.307 c4.427,0,8.017-3.589,8.017-8.017C289.67,337.084,286.081,333.495,281.653,333.495z"/> <path d="M119.182,401.904H59.324c-4.427,0-8.017,3.589-8.017,8.017c0,4.427,3.589,8.017,8.017,8.017h59.858 c4.427,0,8.017-3.589,8.017-8.017C127.198,405.493,123.609,401.904,119.182,401.904z"/> <path d="M196.142,401.904h-42.756c-4.427,0-8.017,3.589-8.017,8.017c0,4.427,3.589,8.017,8.017,8.017h42.756 c4.427,0,8.017-3.589,8.017-8.017C204.159,405.493,200.569,401.904,196.142,401.904z"/> <path d="M367.165,333.495h-51.307c-4.427,0-8.017,3.589-8.017,8.017c0,4.427,3.589,8.017,8.017,8.017h51.307 c4.427,0,8.017-3.589,8.017-8.017C375.182,337.084,371.592,333.495,367.165,333.495z"/> <path d="M110.63,247.983H76.426c-13.851,0-25.119,11.268-25.119,25.119v17.102c0,13.851,11.268,25.119,25.119,25.119h34.205 c13.851,0,25.119-11.268,25.119-25.119v-17.102C135.749,259.252,124.481,247.983,110.63,247.983z M119.716,290.205 c0,5.01-4.076,9.086-9.086,9.086H76.426c-5.01,0-9.086-4.076-9.086-9.086v-17.102c0-5.01,4.076-9.086,9.086-9.086h34.205 c5.01,0,9.086,4.076,9.086,9.086V290.205z"/> <path d="M341.511,222.33c-7.798,0-15.102,2.134-21.378,5.834c-6.275-3.701-13.58-5.834-21.378-5.834 c-23.28,0-42.221,18.941-42.221,42.221c0,23.281,18.941,42.221,42.221,42.221c7.798,0,15.102-2.134,21.378-5.834 c6.275,3.701,13.58,5.834,21.378,5.834c23.281,0,42.221-18.941,42.221-42.221C383.733,241.271,364.792,222.33,341.511,222.33z M320.134,279.649c-3.025-4.271-4.81-9.478-4.81-15.098s1.785-10.827,4.81-15.098c3.025,4.271,4.81,9.478,4.81,15.098 S323.159,275.378,320.134,279.649z M272.568,264.551c0-14.44,11.748-26.188,26.188-26.188c3.003,0,5.885,0.514,8.573,1.448 c-5.049,6.957-8.038,15.503-8.038,24.74c0,9.236,2.989,17.781,8.038,24.74c-2.688,0.934-5.571,1.448-8.573,1.448 C284.316,290.739,272.568,278.991,272.568,264.551z M341.511,290.739c-3.003,0-5.885-0.514-8.573-1.448 c5.049-6.957,8.038-15.503,8.038-24.74c0-9.236-2.989-17.781-8.038-24.74c2.688-0.934,5.571-1.448,8.573-1.448 c14.44,0,26.188,11.748,26.188,26.188C367.699,278.991,355.951,290.739,341.511,290.739z"/> </g>
</svg>