<!DOCTYPE svg PUBLIC "-//W3C//DTD SVG 1.1//EN" "http://www.w3.org/Graphics/SVG/1.1/DTD/svg11.dtd">
<!-- Uploaded to: SVG Repo, www.svgrepo.com, Transformed by: SVG Repo Mixer Tools -->
<svg height="800px" width="800px" version="1.1" id="Layer_1" xmlns="http://www.w3.org/2000/svg" xmlns:xlink="http://www.w3.org/1999/xlink" viewBox="0 0 512 512" xml:space="preserve" fill="#000000">
<g id="SVGRepo_bgCarrier" stroke-width="0"/>
<g id="SVGRepo_tracerCarrier" stroke-linecap="round" stroke-linejoin="round"/>
<g id="SVGRepo_iconCarrier"> <polygon style="fill:#C7CFE2;" points="218.047,0 23.58,0 23.58,476.242 364.046,476.242 364.046,126.207 291.047,63.104 "/> <polygon style="opacity:0.1;enable-background:new ;" points="218.047,0 184.776,0 184.776,159.478 364.046,159.478 364.046,126.207 291.047,63.104 "/> <polygon style="fill:#DCE5FA;" points="294.395,0 218.047,0 218.047,126.207 364.046,126.207 364.046,69.652 "/> <path style="fill:#515262;" d="M388.215,385.742c29.353,37.551,68.035,46.473,89.465,76.235c21.43,29.762,4.169,43.452,4.169,43.452 s-13.69,17.261-43.452-4.169c-29.762-21.43-38.684-60.112-76.235-89.465L388.215,385.742z"/> <ellipse transform="matrix(-0.7071 -0.7071 0.7071 -0.7071 347.476 919.412)" style="fill:#B4BBCC;" cx="364.154" cy="387.741" rx="24.155" ry="31.374"/> <circle style="fill:#0096DC;" cx="292.929" cy="316.508" r="103.273"/> <circle style="fill:#FFFFFF;" cx="292.929" cy="316.508" r="73.025"/> <path style="opacity:0.1;enable-background:new ;" d="M263.474,287.054c24.709-24.709,62.713-27.993,90.975-9.884 c-2.791-4.356-6.075-8.489-9.884-12.297c-28.518-28.518-74.755-28.518-103.272,0c-28.518,28.518-28.518,74.755,0,103.273 c3.808,3.808,7.941,7.092,12.297,9.884C235.481,349.768,238.765,311.763,263.474,287.054z"/> </g>
</svg>